<svg version="1.1" id="Layer_1" xmlns="http://www.w3.org/2000/svg" viewBox="0 0 200 40">
<style type="text/css">
.st0{fill:#0099FF;}
.st1{fill:#808080;}
</style>

<circle class="st0" cx="7" cy="1.61" r="1.61"/>
<circle class="st0" cx="11.32" cy="1.61" r="1.37"/>
<circle class="st0" cx="15.29" cy="1.61" r="1.13"/>
<circle class="st0" cx="18.98" cy="1.61" r="0.88"/>
<circle class="st0" cx="22.27" cy="1.61" r="0.72"/>
<circle class="st0" cx="25.39" cy="1.61" r="0.56"/>
<circle class="st0" cx="7" cy="5.7" r="1.61"/>
<circle class="st0" cx="11.32" cy="5.7" r="1.45"/>
<circle class="st0" cx="15.29" cy="5.7" r="1.29"/>
<circle class="st0" cx="18.98" cy="5.7" r="1.13"/>
<circle class="st0" cx="22.27" cy="5.7" r="0.97"/>
<circle class="st0" cx="25.39" cy="5.7" r="0.8"/>
<circle class="st0" cx="28.23" cy="5.7" r="0.64"/>
<circle class="st0" cx="30.67" cy="5.7" r="0.48"/>
<circle class="st0" cx="7" cy="9.78" r="1.61"/>
<circle class="st0" cx="18.98" cy="9.78" r="1.13"/>
<circle class="st0" cx="22.27" cy="9.78" r="0.97"/>
<circle class="st0" cx="25.39" cy="9.78" r="0.8"/>
<circle class="st0" cx="28.23" cy="9.78" r="0.64"/>
<circle class="st0" cx="30.67" cy="9.78" r="0.48"/>
<circle class="st0" cx="32.87" cy="9.81" r="0.32"/>
<circle class="st0" cx="7" cy="13.87" r="1.61"/>
<circle class="st0" cx="22.27" cy="13.87" r="0.97"/>
<circle class="st0" cx="25.39" cy="13.87" r="0.8"/>
<circle class="st0" cx="28.23" cy="13.87" r="0.64"/>
<circle class="st0" cx="30.67" cy="13.87" r="0.48"/>
<circle class="st0" cx="32.87" cy="13.9" r="0.32"/>
<circle class="st0" cx="34.91" cy="13.9" r="0.24"/>
<circle class="st0" cx="7" cy="17.96" r="1.61"/>
<circle class="st0" cx="22.27" cy="17.96" r="0.97"/>
<circle class="st0" cx="25.39" cy="17.96" r="0.8"/>
<circle class="st0" cx="28.23" cy="17.96" r="0.64"/>
<circle class="st0" cx="30.67" cy="17.96" r="0.48"/>
<circle class="st0" cx="32.87" cy="17.98" r="0.32"/>
<circle class="st0" cx="34.91" cy="17.98" r="0.24"/>
<circle class="st0" cx="7" cy="22.04" r="1.61"/>
<circle class="st0" cx="22.27" cy="22.04" r="0.97"/>
<circle class="st0" cx="25.39" cy="22.04" r="0.8"/>
<circle class="st0" cx="28.23" cy="22.04" r="0.64"/>
<circle class="st0" cx="30.67" cy="22.04" r="0.48"/>
<circle class="st0" cx="32.87" cy="22.07" r="0.32"/>
<circle class="st0" cx="34.91" cy="22.07" r="0.24"/>
<circle class="st0" cx="7" cy="26.13" r="1.61"/>
<circle class="st0" cx="22.27" cy="26.13" r="0.97"/>
<circle class="st0" cx="25.39" cy="26.13" r="0.8"/>
<circle class="st0" cx="28.23" cy="26.13" r="0.64"/>
<circle class="st0" cx="30.67" cy="26.13" r="0.48"/>
<circle class="st0" cx="32.87" cy="26.16" r="0.32"/>
<circle class="st0" cx="34.91" cy="26.16" r="0.24"/>
<circle class="st0" cx="7" cy="30.22" r="1.61"/>
<circle class="st0" cx="18.98" cy="30.22" r="1.13"/>
<circle class="st0" cx="22.27" cy="30.22" r="0.97"/>
<circle class="st0" cx="25.39" cy="30.22" r="0.8"/>
<circle class="st0" cx="28.23" cy="30.22" r="0.64"/>
<circle class="st0" cx="30.67" cy="30.22" r="0.48"/>
<circle class="st0" cx="32.87" cy="30.25" r="0.32"/>
<circle class="st0" cx="7" cy="34.3" r="1.61"/>
<circle class="st0" cx="11.32" cy="34.3" r="1.45"/>
<circle class="st0" cx="15.29" cy="34.3" r="1.29"/>
<circle class="st0" cx="18.98" cy="34.3" r="1.13"/>
<circle class="st0" cx="22.27" cy="34.3" r="0.97"/>
<circle class="st0" cx="25.39" cy="34.3" r="0.8"/>
<circle class="st0" cx="28.23" cy="34.3" r="0.64"/>
<circle class="st0" cx="30.67" cy="34.3" r="0.48"/>
<circle class="st0" cx="7" cy="38.39" r="1.61"/>
<circle class="st0" cx="2.52" cy="1.61" r="1.61"/>
<circle class="st0" cx="2.52" cy="5.7" r="1.61"/>
<circle class="st0" cx="2.52" cy="9.78" r="1.61"/>
<circle class="st0" cx="2.52" cy="13.87" r="1.61"/>
<circle class="st0" cx="2.52" cy="17.96" r="1.61"/>
<circle class="st0" cx="2.52" cy="22.04" r="1.61"/>
<circle class="st0" cx="2.52" cy="26.13" r="1.61"/>
<circle class="st0" cx="2.52" cy="30.22" r="1.61"/>
<circle class="st0" cx="2.52" cy="34.3" r="1.61"/>
<circle class="st0" cx="2.52" cy="38.39" r="1.61"/>
<circle class="st0" cx="11.32" cy="38.39" r="1.37"/>
<circle class="st0" cx="15.29" cy="38.39" r="1.13"/>
<circle class="st0" cx="18.98" cy="38.39" r="0.88"/>
<circle class="st0" cx="22.27" cy="38.39" r="0.72"/>
<circle class="st0" cx="25.39" cy="38.39" r="0.56"/>

<path class="st1" d="M43.64,5.26h5.26c4.96,0,8.4,3.57,8.4,8.23v0.05c0,4.66-3.43,8.28-8.4,8.28h-5.26V5.26z M44.81,6.39v14.29 h4.08c4.4,0,7.18-3.15,7.18-7.1v-0.05c0-3.93-2.78-7.14-7.18-7.14H44.81z"/>
<path class="st1" d="M60.59,13.58v-0.05c0-4.52,3.18-8.56,7.97-8.56c4.78,0,7.92,4,7.92,8.51v0.05c0,4.52-3.18,8.56-7.97,8.56 C63.72,22.1,60.59,18.1,60.59,13.58z M75.26,13.58v-0.05c0-4.09-2.84-7.45-6.75-7.45s-6.7,3.31-6.7,7.4v0.05 c0,4.09,2.84,7.45,6.75,7.45S75.26,17.67,75.26,13.58z"/>
<path class="st1" d="M80.47,5.26h1.11l10.9,14.4V5.26h1.13v16.56h-0.88L81.6,7.1v14.71h-1.13V5.26z"/>
<path class="st1" d="M103.44,15.26l-6.77-10h1.47l5.91,8.89l5.94-8.89h1.4l-6.77,9.98v6.58h-1.17V15.26z"/>
<polygon class="st1" points="119.11,5.14 117.98,5.14 110.62,21.81 111.84,21.81 113.85,17.18 114.34,16.07 118.52,6.49  122.67,16.07 123.17,17.18 125.18,21.81 126.46,21.81 		"/>
<path class="st1" d="M129.8,5.26h5.26c4.96,0,8.4,3.57,8.4,8.23v0.05c0,4.66-3.43,8.28-8.4,8.28h-5.26V5.26z M130.98,6.39v14.29 h4.08c4.4,0,7.18-3.15,7.18-7.1v-0.05c0-3.93-2.78-7.14-7.18-7.14H130.98z"/>
<path class="st1" d="M147.61,5.26h1.17v16.56h-1.17V5.26z"/>
<path class="st1" d="M153.63,5.26h5.26c4.96,0,8.4,3.57,8.4,8.23v0.05c0,4.66-3.43,8.28-8.4,8.28h-5.26V5.26z M154.81,6.39v14.29 h4.08c4.4,0,7.18-3.15,7.18-7.1v-0.05c0-3.93-2.78-7.14-7.18-7.14H154.81z"/>
<path class="st1" d="M171.28,5.26h11.24v1.14h-10.07v6.5h9.05v1.14h-9.05v6.65h10.18v1.13h-11.35V5.26z"/>
<path class="st1" d="M186.4,5.26h1.17v7.66h10.11V5.26h1.17v16.56h-1.17v-7.76h-10.11v7.76h-1.17V5.26z"/>


<path class="st1" d="M43.64,28.63h2.69c2.54,0,4.29,1.74,4.29,4.01v0.02c0,2.27-1.75,4.04-4.29,4.04h-2.69V28.63z M44.24,29.18 v6.97h2.09c2.25,0,3.67-1.53,3.67-3.46v-0.02c0-1.91-1.42-3.48-3.67-3.48H44.24z"/>
<path class="st1" d="M52.07,34.04v-0.02c0-1.55,1.09-2.79,2.54-2.79c1.5,0,2.45,1.22,2.45,2.8c0,0.09,0,0.13-0.01,0.21h-4.43 c0.09,1.33,1.05,2.11,2.1,2.11c0.83,0,1.39-0.37,1.83-0.84l0.36,0.31c-0.54,0.59-1.18,1.01-2.21,1.01 C53.28,36.83,52.07,35.71,52.07,34.04z M56.5,33.78c-0.07-1.08-0.69-2.08-1.92-2.08c-1.06,0-1.88,0.89-1.97,2.08H56.5z"/>
<path class="st1" d="M58.1,36.03l0.3-0.41c0.59,0.45,1.24,0.7,1.92,0.7c0.72,0,1.29-0.4,1.29-1.02v-0.02
c0-0.63-0.67-0.86-1.41-1.07c-0.87-0.25-1.83-0.51-1.83-1.47v-0.02c0-0.86,0.72-1.48,1.76-1.48c0.64,0,1.36,0.23,1.9,0.59
l-0.27,0.43c-0.49-0.32-1.08-0.53-1.64-0.53c-0.73,0-1.22,0.4-1.22,0.93v0.02c0,0.6,0.72,0.82,1.49,1.04
c0.86,0.24,1.76,0.56,1.76,1.5v0.02c0,0.95-0.82,1.56-1.84,1.56C59.51,36.81,58.66,36.49,58.1,36.03z"/>
<path class="st1" d="M63.78,29.26h0.64v0.7h-0.64V29.26z M63.84,31.36h0.51v5.34h-0.51V31.36z"/>
<path class="st1" d="M66.27,37.58l0.3-0.42c0.64,0.49,1.37,0.75,2.16,0.75c1.23,0,2.1-0.7,2.1-2.07v-0.78
c-0.46,0.66-1.17,1.24-2.23,1.24c-1.29,0-2.57-0.99-2.57-2.51v-0.02c0-1.54,1.28-2.54,2.57-2.54c1.07,0,1.79,0.57,2.23,1.19v-1.07
h0.51v4.52c0,0.78-0.25,1.38-0.68,1.81c-0.46,0.46-1.15,0.71-1.94,0.71C67.84,38.4,67.01,38.13,66.27,37.58z M70.86,33.78v-0.02
c0-1.24-1.1-2.03-2.21-2.03c-1.12,0-2.06,0.78-2.06,2.02v0.02c0,1.21,0.96,2.04,2.06,2.04C69.76,35.81,70.86,35,70.86,33.78z"/>
<path class="st1" d="M73.3,31.36h0.51v1c0.36-0.63,0.95-1.12,1.93-1.12c1.35,0,2.14,0.92,2.14,2.2v3.27h-0.51v-3.18
c0-1.1-0.62-1.82-1.7-1.82c-1.05,0-1.85,0.8-1.85,1.91v3.09H73.3V31.36z"/>
<path class="st1" d="M87.15,35.54c-0.69,0.81-1.5,1.27-2.48,1.27c-1.29,0-2.25-0.84-2.25-2.03v-0.02c0-0.99,0.7-1.71,1.9-2.15
c-0.56-0.62-0.82-1.07-0.82-1.68v-0.02c0-0.94,0.76-1.67,1.83-1.67c0.95,0,1.69,0.71,1.69,1.59v0.02c0,0.91-0.68,1.51-1.8,1.9
l1.93,1.98c0.36-0.5,0.67-1.11,0.95-1.78l0.49,0.2c-0.34,0.75-0.69,1.41-1.09,1.95l1.35,1.39l-0.43,0.36L87.15,35.54z M86.8,35.18
l-2.17-2.24c-1.16,0.4-1.68,1.08-1.68,1.79v0.02c0,0.89,0.71,1.58,1.72,1.58C85.49,36.34,86.19,35.9,86.8,35.18z M86.46,30.88
v-0.02c0-0.65-0.5-1.15-1.16-1.15c-0.74,0-1.27,0.52-1.27,1.18v0.02c0,0.46,0.2,0.82,0.85,1.51
C85.93,32.08,86.46,31.57,86.46,30.88z"/>
<path class="st1" d="M93.54,28.63h2.69c2.54,0,4.29,1.74,4.29,4.01v0.02c0,2.27-1.75,4.04-4.29,4.04h-2.69V28.63z M94.14,29.18
v6.97h2.09c2.25,0,3.67-1.53,3.67-3.46v-0.02c0-1.91-1.42-3.48-3.67-3.48H94.14z"/>
<path class="st1" d="M101.97,34.04v-0.02c0-1.55,1.09-2.79,2.54-2.79c1.5,0,2.45,1.22,2.45,2.8c0,0.09,0,0.13-0.01,0.21h-4.43
c0.09,1.33,1.05,2.11,2.1,2.11c0.83,0,1.39-0.37,1.83-0.84l0.36,0.31c-0.55,0.59-1.18,1.01-2.21,1.01
C103.18,36.83,101.97,35.71,101.97,34.04z M106.4,33.78c-0.07-1.08-0.69-2.08-1.92-2.08c-1.06,0-1.88,0.89-1.97,2.08H106.4z"/>
<path class="st1" d="M107.65,31.36h0.6l2.02,4.77l2.04-4.77h0.58l-2.4,5.39h-0.44L107.65,31.36z"/>
<path class="st1" d="M113.61,34.04v-0.02c0-1.55,1.09-2.79,2.54-2.79c1.5,0,2.45,1.22,2.45,2.8c0,0.09,0,0.13-0.01,0.21h-4.43
c0.09,1.33,1.05,2.11,2.1,2.11c0.83,0,1.39-0.37,1.83-0.84l0.36,0.31c-0.55,0.59-1.18,1.01-2.21,1.01
C114.83,36.83,113.61,35.71,113.61,34.04z M118.05,33.78c-0.07-1.08-0.69-2.08-1.92-2.08c-1.06,0-1.88,0.89-1.97,2.08H118.05z"/>
<path class="st1" d="M120.18,29.05h0.51v7.65h-0.51V29.05z"/>
<path class="st1" d="M122.35,34.05v-0.02c0-1.5,1.16-2.8,2.76-2.8c1.58,0,2.73,1.28,2.73,2.78v0.02c0,1.5-1.16,2.8-2.76,2.8
C123.5,36.83,122.35,35.55,122.35,34.05z M127.28,34.05v-0.02c0-1.29-0.96-2.32-2.2-2.32c-1.27,0-2.18,1.04-2.18,2.3v0.02
c0,1.29,0.96,2.32,2.2,2.32C126.37,36.35,127.28,35.31,127.28,34.05z"/>
<path class="st1" d="M129.42,31.36h0.51v1.19c0.46-0.7,1.14-1.32,2.2-1.32c1.29,0,2.6,1.04,2.6,2.78v0.02c0,1.74-1.31,2.8-2.6,2.8
c-1.07,0-1.76-0.61-2.2-1.28v2.83h-0.51V31.36z M134.18,34.05v-0.02c0-1.4-0.97-2.3-2.1-2.3c-1.11,0-2.18,0.93-2.18,2.29v0.02
c0,1.37,1.07,2.3,2.18,2.3C133.25,36.34,134.18,35.49,134.18,34.05z"/>
<path class="st1" d="M136.34,31.36h0.51v0.95c0.35-0.56,0.83-1.08,1.78-1.08c0.93,0,1.51,0.53,1.8,1.15
c0.35-0.6,0.92-1.15,1.93-1.15c1.27,0,2.05,0.89,2.05,2.23v3.24h-0.51v-3.18c0-1.15-0.6-1.82-1.58-1.82
c-0.9,0-1.69,0.69-1.69,1.89v3.11h-0.51V33.5c0-1.11-0.61-1.79-1.56-1.79c-0.95,0-1.71,0.84-1.71,1.92v3.08h-0.51V31.36z"/>
<path class="st1" d="M145.95,34.04v-0.02c0-1.55,1.09-2.79,2.54-2.79c1.5,0,2.45,1.22,2.45,2.8c0,0.09,0,0.13-0.01,0.21h-4.43
c0.09,1.33,1.05,2.11,2.1,2.11c0.83,0,1.39-0.37,1.83-0.84l0.36,0.31c-0.55,0.59-1.18,1.01-2.21,1.01
C147.16,36.83,145.95,35.71,145.95,34.04z M150.38,33.78c-0.07-1.08-0.69-2.08-1.92-2.08c-1.06,0-1.88,0.89-1.97,2.08H150.38z"/>
<path class="st1" d="M152.44,31.36h0.51v1c0.36-0.63,0.95-1.12,1.93-1.12c1.35,0,2.14,0.92,2.14,2.2v3.27h-0.51v-3.18
c0-1.1-0.62-1.82-1.7-1.82c-1.05,0-1.86,0.8-1.86,1.91v3.09h-0.51V31.36z"/>
<path class="st1" d="M159.15,35.33v-3.5h-0.78v-0.47h0.78v-1.71h0.51v1.71h1.88v0.47h-1.88v3.45c0,0.76,0.45,1.04,1.07,1.04
c0.26,0,0.48-0.05,0.79-0.19v0.48c-0.27,0.13-0.53,0.19-0.87,0.19C159.82,36.8,159.15,36.35,159.15,35.33z"/>
<path class="st1" d="M165.91,35.53l0.39-0.45c0.89,0.82,1.71,1.2,2.89,1.2c1.21,0,2.04-0.68,2.04-1.6v-0.02
c0-0.85-0.45-1.35-2.28-1.72c-1.94-0.39-2.72-1.05-2.72-2.27v-0.02c0-1.2,1.1-2.12,2.6-2.12c1.18,0,1.95,0.32,2.77,0.98
l-0.38,0.47c-0.76-0.66-1.52-0.91-2.41-0.91c-1.19,0-1.97,0.68-1.97,1.52v0.02c0,0.85,0.44,1.37,2.35,1.77
c1.87,0.38,2.65,1.05,2.65,2.23v0.02c0,1.3-1.12,2.2-2.68,2.2C167.87,36.82,166.88,36.39,165.91,35.53z"/>
<path class="st1" d="M173.87,35.33v-3.5h-0.78v-0.47h0.78v-1.71h0.51v1.71h1.88v0.47h-1.88v3.45c0,0.76,0.45,1.04,1.07,1.04
c0.26,0,0.48-0.05,0.79-0.19v0.48c-0.27,0.13-0.53,0.19-0.87,0.19C174.54,36.8,173.87,36.35,173.87,35.33z"/>
<path class="st1" d="M177.67,34.63v-3.27h0.51v3.18c0,1.1,0.62,1.82,1.7,1.82c1.05,0,1.85-0.8,1.85-1.91v-3.09h0.51v5.34h-0.51v-1
c-0.36,0.63-0.95,1.12-1.93,1.12C178.46,36.83,177.67,35.91,177.67,34.63z"/>
<path class="st1" d="M183.86,34.05v-0.02c0-1.74,1.31-2.8,2.6-2.8c1.07,0,1.76,0.61,2.2,1.28v-3.46h0.51v7.65h-0.51v-1.19 c-0.46,0.7-1.14,1.32-2.2,1.32C185.17,36.83,183.86,35.79,183.86,34.05z M188.69,34.04v-0.02c0-1.37-1.07-2.29-2.18-2.29 c-1.16,0-2.1,0.85-2.1,2.28v0.02c0,1.4,0.97,2.31,2.1,2.31C187.62,36.34,188.69,35.4,188.69,34.04z"/>
<path class="st1" d="M191.14,29.26h0.64v0.7h-0.64V29.26z M191.2,31.36h0.51v5.34h-0.51V31.36z"/>
<path class="st1" d="M193.37,34.05v-0.02c0-1.5,1.16-2.8,2.76-2.8c1.58,0,2.73,1.28,2.73,2.78v0.02c0,1.5-1.16,2.8-2.76,2.8C194.52,36.83,193.37,35.55,193.37,34.05z M198.31,34.05v-0.02c0-1.29-0.96-2.32-2.2-2.32c-1.27,0-2.18,1.04-2.18,2.3v0.02 c0,1.29,0.96,2.32,2.2,2.32C197.4,36.35,198.31,35.31,198.31,34.05z"/>

</svg>
